<svg width="22" height="26" viewBox="0 0 22 26" fill="none" xmlns="http://www.w3.org/2000/svg">
<path fill-rule="evenodd" clip-rule="evenodd" d="M10.2406 1.24036C11.3285 0.197548 13.0054 0.197548 14.0933 1.24036C14.8104 1.92777 15.6988 2.88412 16.4132 3.9902C17.1212 5.08644 17.7086 6.40709 17.7086 7.80484C17.7086 10.4967 15.6121 13.2916 12.167 13.2916C8.72184 13.2916 6.62528 10.4967 6.62528 7.80484C6.62528 6.40709 7.21268 5.08644 7.92071 3.9902C8.63508 2.88412 9.52347 1.92777 10.2406 1.24036ZM12.8823 2.50369C12.4714 2.10977 11.8625 2.10977 11.4516 2.50369C10.7888 3.13899 10.0043 3.98968 9.39076 4.93965C8.77085 5.89945 8.37528 6.88385 8.37528 7.80484C8.37528 9.65981 9.81307 11.5416 12.167 11.5416C14.5208 11.5416 15.9586 9.65981 15.9586 7.80484C15.9586 6.88385 15.5631 5.89945 14.9431 4.93965C14.3296 3.98968 13.5451 3.13899 12.8823 2.50369Z" fill="#067647"/>
<path d="M0.791952 15.3333C0.791952 14.85 1.1837 14.4583 1.66695 14.4583L4.46091 14.4583C4.9352 14.4583 5.40403 14.565 5.83058 14.7714L8.21288 15.9241C8.40022 16.0147 8.60831 16.0626 8.82036 16.0626H10.0368C11.0137 16.0626 11.8976 16.5238 12.4499 17.2475L17.2646 15.7682L17.2663 15.7677C18.5853 15.3576 19.9976 15.8509 20.8059 16.9703C21.531 17.9744 21.2508 19.4228 20.1621 20.051L11.3939 25.1101C10.6298 25.551 9.72391 25.6601 8.87871 25.4093L1.4177 23.1953C0.954414 23.0579 0.690292 22.5709 0.827762 22.1076C0.965236 21.6443 1.45224 21.3802 1.91553 21.5176L9.37654 23.7316C9.75817 23.8448 10.1681 23.7969 10.5193 23.5943L19.2875 18.5352C19.4524 18.4401 19.5225 18.1823 19.3872 17.9948C19.0059 17.4668 18.3655 17.2582 17.7851 17.439L17.7818 17.44L13.0402 18.8969C13.0414 18.9307 13.042 18.9647 13.042 18.9989C13.042 19.4552 12.7313 19.8284 12.3229 19.9414L9.35848 20.761C8.62288 20.9644 7.83507 20.894 7.14835 20.5617L4.60164 19.3295C4.16664 19.1191 3.98462 18.5958 4.19509 18.1608C4.40557 17.7258 4.92883 17.5438 5.36384 17.7542L7.91055 18.9864C8.21316 19.1329 8.56418 19.1649 8.89213 19.0743L11.1487 18.4503C10.9433 18.0787 10.5344 17.8126 10.0368 17.8126H8.82036C8.34608 17.8126 7.87724 17.7058 7.45069 17.4994L5.06839 16.3467C4.88105 16.2561 4.67296 16.2083 4.46091 16.2083H1.66695C1.1837 16.2083 0.791952 15.8165 0.791952 15.3333Z" fill="#067647"/>
</svg>
