<svg width="18" height="18" viewBox="0 0 18 18" fill="none" xmlns="http://www.w3.org/2000/svg">
<path fill-rule="evenodd" clip-rule="evenodd" d="M0.041626 2.54169C0.041626 1.16098 1.16091 0.041687 2.54163 0.041687C3.92234 0.041687 5.04163 1.16098 5.04163 2.54169C5.04163 3.9224 3.92234 5.04169 2.54163 5.04169C1.16091 5.04169 0.041626 3.9224 0.041626 2.54169ZM2.54163 1.29169C1.85127 1.29169 1.29163 1.85133 1.29163 2.54169C1.29163 3.23204 1.85127 3.79169 2.54163 3.79169C3.23198 3.79169 3.79163 3.23204 3.79163 2.54169C3.79163 1.85133 3.23198 1.29169 2.54163 1.29169Z" fill="white"/>
<path fill-rule="evenodd" clip-rule="evenodd" d="M2.29601 6.29169H2.78726C3.14794 6.29165 3.47863 6.29161 3.74764 6.32778C4.04387 6.3676 4.35698 6.46131 4.6145 6.71883C4.87202 6.97635 4.96572 7.28945 5.00555 7.58569C5.04172 7.85469 5.04168 8.18539 5.04164 8.54606L5.04164 15.704C5.04168 16.0647 5.04172 16.3954 5.00555 16.6644C4.96572 16.9606 4.87202 17.2737 4.6145 17.5312C4.35698 17.7887 4.04387 17.8824 3.74764 17.9223C3.47863 17.9584 3.14793 17.9584 2.78725 17.9584H2.29601C1.93533 17.9584 1.60464 17.9584 1.33563 17.9223C1.03939 17.8824 0.726287 17.7887 0.468768 17.5312C0.211248 17.2737 0.117542 16.9606 0.0777148 16.6644C0.0415474 16.3954 0.0415864 16.0647 0.0416289 15.704L0.0416289 8.54607C0.0415864 8.18539 0.0415474 7.8547 0.0777148 7.58569C0.117542 7.28945 0.211248 6.97635 0.468768 6.71883C0.726287 6.46131 1.03939 6.3676 1.33563 6.32778C1.60464 6.29161 1.93533 6.29165 2.29601 6.29169ZM1.35266 7.60272L1.35469 7.60158C1.3563 7.60074 1.35906 7.59939 1.36327 7.59766C1.38142 7.59019 1.42172 7.57745 1.50219 7.56663C1.67779 7.54302 1.92279 7.54169 2.3333 7.54169H2.74997C3.16047 7.54169 3.40548 7.54302 3.58108 7.56663C3.66154 7.57745 3.70184 7.59019 3.71999 7.59766C3.7242 7.59939 3.72696 7.60074 3.72857 7.60158L3.7306 7.60272L3.73175 7.60475C3.73259 7.60636 3.73394 7.60913 3.73567 7.61333C3.74313 7.63148 3.75588 7.67178 3.7667 7.75225C3.7903 7.92785 3.79163 8.17285 3.79163 8.58336L3.79163 15.6667C3.79163 16.0772 3.7903 16.3222 3.7667 16.4978C3.75588 16.5783 3.74313 16.6186 3.73567 16.6367C3.73394 16.6409 3.73259 16.6437 3.73175 16.6453L3.7306 16.6473L3.72857 16.6485C3.72696 16.6493 3.7242 16.6507 3.71999 16.6524C3.70184 16.6599 3.66154 16.6726 3.58108 16.6834C3.40548 16.707 3.16047 16.7084 2.74997 16.7084H2.3333C1.92279 16.7084 1.67779 16.707 1.50219 16.6834C1.42172 16.6726 1.38142 16.6599 1.36327 16.6524C1.35906 16.6507 1.3563 16.6493 1.35469 16.6485L1.35266 16.6473L1.35152 16.6453C1.35067 16.6437 1.34933 16.6409 1.3476 16.6367C1.34013 16.6186 1.32739 16.5783 1.31657 16.4978C1.29296 16.3222 1.29163 16.0772 1.29163 15.6667L1.29163 8.58336C1.29163 8.17285 1.29296 7.92785 1.31657 7.75225C1.32739 7.67178 1.34013 7.63148 1.3476 7.61333C1.34933 7.60913 1.35067 7.60636 1.35152 7.60475L1.35266 7.60272Z" fill="white"/>
<path fill-rule="evenodd" clip-rule="evenodd" d="M8.54601 6.29169C8.78733 6.29167 9.75921 6.29165 9.9437 6.30856C10.1432 6.32683 10.3605 6.36884 10.5697 6.49129C10.7858 6.61768 10.9656 6.79754 11.092 7.01356L11.102 7.03097C11.7601 6.56627 12.5545 6.29189 13.4139 6.29189C15.6599 6.29189 17.9583 8.20374 17.9583 10.6669L17.9572 15.288C17.9572 15.6486 17.9571 15.9792 17.9209 16.2481C17.881 16.5443 17.7873 16.8573 17.5298 17.1148C17.2723 17.3722 16.9592 17.4659 16.663 17.5057C16.3941 17.5419 16.0635 17.5418 15.7029 17.5418H15.2126C14.852 17.5418 14.5213 17.5419 14.2523 17.5057C13.956 17.4659 13.6429 17.3722 13.3854 17.1147C13.1279 16.8571 13.0342 16.544 12.9944 16.2478C12.9582 15.9788 12.9582 15.6481 12.9583 15.2874L12.9583 11.5001C12.9583 11.1189 12.6762 10.8751 12.4065 10.8751C11.9755 10.8751 11.7438 11.0404 11.5846 11.3048C11.3973 11.6157 11.2917 12.1074 11.2917 12.7501L11.2917 15.704C11.2917 16.0647 11.2917 16.3954 11.2556 16.6644C11.2157 16.9606 11.122 17.2737 10.8645 17.5312C10.607 17.7887 10.2939 17.8825 9.99765 17.9223C9.72864 17.9584 9.39794 17.9584 9.03727 17.9584H8.54599C8.18532 17.9584 7.85463 17.9584 7.58563 17.9223C7.28939 17.8824 6.97629 17.7887 6.71877 17.5312C6.46125 17.2737 6.36754 16.9606 6.32771 16.6644C6.29155 16.3954 6.29159 16.0647 6.29163 15.704L6.29163 8.54607C6.29159 8.18539 6.29155 7.8547 6.32771 7.58569C6.36754 7.28945 6.46125 6.97635 6.71877 6.71883C6.97629 6.46131 7.28939 6.3676 7.58563 6.32778C7.85463 6.29161 8.18533 6.29165 8.54601 6.29169ZM8.58329 7.54169C8.17279 7.54169 7.92778 7.54301 7.75218 7.56662C7.69579 7.56443 7.57973 7.59848 7.56656 7.75224C7.54295 7.92784 7.54163 8.17285 7.54163 8.58335L7.54163 15.6667C7.54163 16.0772 7.54295 16.3222 7.56656 16.4978C7.57662 16.5994 7.6945 16.6639 7.75218 16.6834C7.92778 16.707 8.17279 16.7084 8.58329 16.7084H8.99998C9.41048 16.7084 9.65548 16.707 9.83108 16.6834C9.88842 16.6689 10.0058 16.6115 10.0167 16.4978C10.0403 16.3222 10.0416 16.0772 10.0416 15.6667L10.0417 12.7501C10.0417 12.0121 10.156 11.2539 10.5138 10.6599C10.8995 10.0195 11.5378 9.62512 12.4065 9.62512C13.4366 9.62512 14.2083 10.5007 14.2083 11.5001V15.2501C14.2083 15.6606 14.2096 15.9056 14.2332 16.0812C14.2332 16.2129 14.3128 16.235 14.375 16.2523C14.3914 16.2568 14.4066 16.261 14.4188 16.2668C14.5944 16.2905 14.8394 16.2918 15.2499 16.2918L15.6656 16.2918C16.076 16.2918 16.3209 16.2905 16.4965 16.2669C16.5543 16.2454 16.6724 16.1783 16.6821 16.0813C16.7057 15.9057 16.7071 15.6608 16.7072 15.2504L16.7083 10.6667C16.7082 8.98782 15.0672 7.54189 13.4139 7.54189C12.516 7.54189 11.7036 7.98091 11.1641 8.69005C11.0017 8.90353 10.7212 8.98958 10.467 8.9039C10.2128 8.81821 10.0417 8.5799 10.0417 8.31167C10.0417 8.03753 10.041 7.87417 10.03 7.75368C10.0232 7.62764 9.89359 7.5676 9.82965 7.55334C9.70916 7.5423 9.54581 7.54169 9.27167 7.54169L8.58329 7.54169Z" fill="white"/>
</svg>
