<svg width="125" height="42" viewBox="0 0 125 42" fill="none" xmlns="http://www.w3.org/2000/svg">
<rect width="125" height="42" fill="white"/>
<path d="M35.9773 25.4111C35.6042 25.1856 34.9242 24.8055 33.9854 24.4898C32.6314 24.0259 30.7418 23.678 28.5031 24.0581C27.7509 24.187 26.9566 24.3996 26.1321 24.7153C26.0539 24.7475 25.9757 24.7733 25.8974 24.8055C25.4762 24.973 25.061 25.1792 24.6397 25.4047C24.2787 25.598 23.9236 25.8106 23.5686 26.0425C22.7562 26.5644 21.9558 27.1572 21.1795 27.8014C20.2949 22.0737 20.7282 16.7583 20.9328 14.1489C20.9328 14.136 20.9508 14.1296 20.9628 14.136C22.8584 15.4117 22.3289 18.9747 21.9257 19.9991C21.9197 20.0184 21.9437 20.0313 21.9618 20.0184C24.3208 17.0353 23.1714 13.7366 22.6839 12.9054C22.6719 12.8861 22.696 12.8668 22.714 12.8797C23.057 13.176 23.3339 13.4917 23.5686 13.8139C24.2967 14.8125 24.5675 15.8885 24.6397 16.8421C24.6758 17.3446 24.6638 17.8085 24.6397 18.208C24.6337 18.3175 24.6277 18.4141 24.6157 18.5108C24.6157 18.5237 24.6277 18.5301 24.6397 18.5237C24.6457 18.5237 24.6518 18.5237 24.6518 18.5172C25.2896 17.1771 25.5966 15.154 24.6397 13.1889C24.381 12.6542 24.0319 12.1258 23.5686 11.6169C23.4362 11.4687 23.2917 11.3269 23.1413 11.1787C23.1292 11.1659 23.1413 11.1401 23.1593 11.1465C23.3038 11.1852 23.4362 11.2303 23.5686 11.2754C23.9718 11.4236 24.3268 11.6297 24.6397 11.881C25.3558 12.448 25.8433 13.2211 26.1321 14.0329C26.3728 14.703 26.4812 15.3924 26.4812 16.0045C26.4812 16.0302 26.5113 16.0303 26.5173 16.0109C26.9626 14.2649 26.6918 12.9441 26.1321 11.9841C25.735 11.2947 25.1873 10.7922 24.6397 10.4378C24.2666 10.1994 23.8935 10.0319 23.5686 9.92882C23.376 9.86439 23.2075 9.82573 23.057 9.8064C23.033 9.8064 23.039 9.76775 23.063 9.76775C23.2376 9.74842 23.4061 9.74197 23.5686 9.73553C23.9657 9.72909 24.3208 9.76775 24.6397 9.82573C25.2716 9.95459 25.765 10.1865 26.1321 10.4571C26.7339 10.8888 27.0348 11.3978 27.1371 11.604C27.1431 11.6233 27.1732 11.6104 27.1732 11.5911C27.089 10.6698 26.6918 9.94815 26.1382 9.43271C25.7109 9.03325 25.1873 8.75621 24.6457 8.58869C24.2907 8.48561 23.9296 8.42763 23.5746 8.42118C23.0931 8.41474 22.6298 8.49849 22.2386 8.67889C22.2206 8.68534 22.2085 8.66601 22.2146 8.64668C22.5636 8.11192 23.057 7.78978 23.5746 7.61582C23.9356 7.49985 24.3027 7.45474 24.6457 7.48051C24.9767 7.49984 25.2776 7.57715 25.5243 7.69957C25.5424 7.70601 25.5544 7.68669 25.5424 7.66736C25.2716 7.33878 24.9647 7.08105 24.6457 6.88777C24.3027 6.68159 23.9417 6.55918 23.5746 6.51408C22.6177 6.39811 21.6429 6.83623 20.9929 7.88642C20.9869 7.89931 20.9689 7.89931 20.9628 7.88642C20.8365 7.64803 20.7161 7.38387 20.6078 7.10682C20.349 6.46253 20.1384 5.74093 20.0241 5.01933C20.018 4.99356 19.994 4.99356 19.994 5.01933C19.8796 5.74093 19.663 6.46898 19.4042 7.11327C19.2899 7.39032 19.1756 7.64804 19.0492 7.87998C19.0432 7.89287 19.0251 7.89287 19.0191 7.87998C17.8877 6.04375 15.7635 6.08241 14.4696 7.66736C14.4576 7.68025 14.4696 7.70601 14.4877 7.69957C15.3482 7.26145 16.9791 7.39031 17.7975 8.64668C17.8095 8.66601 17.7915 8.68534 17.7734 8.67889C16.5157 8.11192 14.5659 8.47916 13.5248 9.8064C13.1517 10.2767 12.899 10.8759 12.8328 11.5911C12.8328 11.6104 12.8569 11.6233 12.8689 11.604C12.9471 11.4429 13.1517 11.095 13.5248 10.7406C14.1326 10.1672 15.1918 9.58735 16.943 9.76131C16.967 9.76775 16.967 9.79996 16.949 9.79996C16.0523 9.91594 14.2049 10.7728 13.5248 12.7315C13.2239 13.5948 13.1457 14.6772 13.4827 16.0045C13.4887 16.0238 13.5188 16.0238 13.5188 15.998C13.5188 15.9658 13.5188 15.9401 13.5248 15.9078C13.5429 14.1296 14.4937 11.7457 16.8467 11.1401C16.8647 11.1336 16.8768 11.1594 16.8647 11.1723C14.2349 13.6464 14.4937 16.7003 15.3543 18.5043C15.3663 18.5237 15.3904 18.5172 15.3904 18.4979C15.276 17.132 15.1858 14.703 17.292 12.8668C17.31 12.8539 17.3341 12.8732 17.3221 12.8926C16.8346 13.7301 15.6852 17.0225 18.0442 20.0055C18.0563 20.0249 18.0863 20.012 18.0803 19.9862C17.6831 18.9682 17.1536 15.3988 19.0432 14.1231C19.0552 14.1167 19.0733 14.1232 19.0733 14.136C19.2779 16.7454 19.7111 22.0608 18.8265 27.7886C17.304 26.5386 15.6973 25.4433 14.1086 24.799C13.91 24.7217 13.7174 24.6509 13.5309 24.58C11.888 24.0001 10.3836 23.8391 9.07167 23.9035C6.96544 24.0001 5.35267 24.6766 4.46805 25.147C4.28752 25.2436 4.13707 25.3338 4.02273 25.4047C3.97459 25.4369 4.0107 25.5078 4.05884 25.4884C4.19725 25.4433 4.32965 25.3982 4.46805 25.3596C6.08684 24.8699 7.62138 24.7411 9.07167 24.8764C10.6544 25.0245 12.1408 25.4884 13.5309 26.1585C15.4806 27.0992 17.2438 28.4393 18.8386 29.8567C16.5879 31.9571 14.6863 33.9995 13.5309 34.7147C13.4707 34.7469 13.4165 34.7856 13.3624 34.8178C13.0855 34.4119 12.6041 34.1799 12.0806 34.3023C11.6232 34.4119 11.2501 34.8049 11.1478 35.2881C11.0575 35.7198 11.1599 36.1901 11.3885 36.4349C12.0023 37.0921 12.7124 37.1372 13.5309 36.77C15.0895 36.0677 17.0272 33.8642 19.4042 31.5319C19.6028 31.3386 19.8014 31.1389 20.006 30.9456C20.2106 31.1389 20.4092 31.3322 20.6078 31.5254C21.685 32.5821 22.6719 33.6129 23.5746 34.4892C23.9477 34.85 24.3027 35.185 24.6457 35.4814C25.1753 35.9453 25.6748 36.3254 26.1382 36.5896C27.0468 37.105 27.8352 37.1694 28.5092 36.5316C28.5453 36.4994 28.5814 36.4672 28.6175 36.4285C28.7739 36.261 28.9545 35.7133 28.8582 35.2817C28.804 35.0304 28.6777 34.8049 28.5031 34.6309C28.3467 34.4698 28.1421 34.3474 27.9254 34.2959C27.4019 34.1735 26.9205 34.4054 26.6436 34.8113C26.4872 34.7276 26.3187 34.6116 26.1321 34.4763C25.7049 34.1606 25.2054 33.716 24.6397 33.1877C24.3027 32.872 23.9477 32.5241 23.5686 32.1568C22.8344 31.4417 22.028 30.6556 21.1735 29.8503C21.9317 29.1738 22.7321 28.5166 23.5686 27.911C23.9176 27.6597 24.2726 27.4149 24.6397 27.1829C25.1272 26.8737 25.6206 26.5902 26.1321 26.326C26.8964 25.933 27.6847 25.6044 28.5031 25.3531C30.2002 24.8313 32.0236 24.6573 33.9854 24.9923C34.6233 25.1019 35.2732 25.2629 35.9412 25.482C35.9893 25.5142 36.0254 25.4433 35.9773 25.4111Z" fill="#9DA4AE"/>
<path d="M46.806 25H45.45V16.624H49.05C50.586 16.624 51.486 17.62 51.486 19.144C51.486 20.668 50.586 21.664 49.05 21.664H46.806V25ZM46.806 17.812V20.476H48.966C49.65 20.476 50.058 20.104 50.058 19.432V18.856C50.058 18.184 49.65 17.812 48.966 17.812H46.806ZM55.0494 25H54.2094C53.3214 25 52.8774 24.508 52.8774 23.704V16.12H54.1854V23.932H55.0494V25ZM61.6033 25H60.8713C60.1873 25 59.8273 24.568 59.7433 23.956H59.6833C59.4433 24.736 58.7713 25.144 57.8593 25.144C56.5753 25.144 55.8433 24.412 55.8433 23.284C55.8433 22.048 56.7673 21.412 58.5073 21.412H59.6353V20.884C59.6353 20.128 59.2273 19.684 58.3513 19.684C57.6193 19.684 57.1753 20.044 56.8633 20.536L56.0833 19.828C56.4913 19.132 57.2233 18.616 58.4353 18.616C60.0433 18.616 60.9433 19.408 60.9433 20.8V23.932H61.6033V25ZM58.2313 24.148C59.0353 24.148 59.6353 23.764 59.6353 23.152V22.252H58.5313C57.6193 22.252 57.1753 22.552 57.1753 23.092V23.308C57.1753 23.86 57.5833 24.148 58.2313 24.148ZM65.7181 25H64.5781C63.6781 25 63.1981 24.496 63.1981 23.644V19.828H62.2261V18.76H62.7541C63.1861 18.76 63.3301 18.58 63.3301 18.148V17.056H64.5061V18.76H65.8141V19.828H64.5061V23.932H65.7181V25ZM67.4866 25V19.828H66.5386V18.76H67.4866V17.728C67.4866 16.72 68.0266 16.12 69.0706 16.12H70.1026V17.188H68.7946V18.76H70.1026V19.828H68.7946V25H67.4866ZM73.6418 25.144C71.9018 25.144 70.7738 23.872 70.7738 21.88C70.7738 19.888 71.9018 18.616 73.6418 18.616C75.3818 18.616 76.5098 19.888 76.5098 21.88C76.5098 23.872 75.3818 25.144 73.6418 25.144ZM73.6418 24.064C74.5298 24.064 75.1298 23.512 75.1298 22.408V21.352C75.1298 20.248 74.5298 19.696 73.6418 19.696C72.7538 19.696 72.1538 20.248 72.1538 21.352V22.408C72.1538 23.512 72.7538 24.064 73.6418 24.064ZM79.2753 25H77.9673V18.76H79.2753V19.96H79.3353C79.5153 19.324 80.0553 18.76 81.0513 18.76H81.3993V20.02H80.8833C79.8513 20.02 79.2753 20.368 79.2753 21.016V25ZM83.869 25H82.561V18.76H83.869V19.792H83.929C84.181 19.144 84.649 18.616 85.597 18.616C86.437 18.616 87.145 19.024 87.445 19.888H87.481C87.709 19.192 88.357 18.616 89.365 18.616C90.601 18.616 91.333 19.504 91.333 21.04V25H90.025V21.196C90.025 20.236 89.665 19.744 88.873 19.744C88.213 19.744 87.601 20.092 87.601 20.812V25H86.293V21.196C86.293 20.224 85.921 19.744 85.153 19.744C84.505 19.744 83.869 20.092 83.869 20.812V25ZM100.839 25H96.075V16.624H97.431V23.8H100.839V25ZM104.462 25.144C102.722 25.144 101.594 23.872 101.594 21.88C101.594 19.888 102.722 18.616 104.462 18.616C106.202 18.616 107.33 19.888 107.33 21.88C107.33 23.872 106.202 25.144 104.462 25.144ZM104.462 24.064C105.35 24.064 105.95 23.512 105.95 22.408V21.352C105.95 20.248 105.35 19.696 104.462 19.696C103.574 19.696 102.974 20.248 102.974 21.352V22.408C102.974 23.512 103.574 24.064 104.462 24.064ZM114.26 25.588C114.26 26.884 113.336 27.544 111.092 27.544C109.052 27.544 108.26 26.992 108.26 26.044C108.26 25.36 108.668 24.988 109.328 24.844V24.712C108.872 24.568 108.62 24.22 108.62 23.752C108.62 23.104 109.124 22.792 109.724 22.648V22.6C108.992 22.252 108.584 21.592 108.584 20.752C108.584 19.48 109.484 18.616 111.068 18.616C111.488 18.616 111.872 18.676 112.196 18.808V18.64C112.196 18.088 112.46 17.752 113.012 17.752H113.972V18.808H112.7V19.06C113.264 19.432 113.576 20.032 113.576 20.752C113.576 22.012 112.664 22.864 111.08 22.864C110.78 22.864 110.492 22.828 110.264 22.768C109.952 22.876 109.664 23.08 109.664 23.392C109.664 23.728 109.988 23.86 110.54 23.86H112.076C113.612 23.86 114.26 24.508 114.26 25.588ZM113.036 25.732C113.036 25.3 112.748 25.024 111.896 25.024H109.784C109.496 25.192 109.352 25.444 109.352 25.744C109.352 26.248 109.724 26.596 110.696 26.596H111.512C112.532 26.596 113.036 26.308 113.036 25.732ZM111.08 21.916C111.848 21.916 112.292 21.568 112.292 20.86V20.62C112.292 19.912 111.848 19.564 111.08 19.564C110.312 19.564 109.868 19.912 109.868 20.62V20.86C109.868 21.568 110.312 21.916 111.08 21.916ZM117.611 25.144C115.871 25.144 114.743 23.872 114.743 21.88C114.743 19.888 115.871 18.616 117.611 18.616C119.351 18.616 120.479 19.888 120.479 21.88C120.479 23.872 119.351 25.144 117.611 25.144ZM117.611 24.064C118.499 24.064 119.099 23.512 119.099 22.408V21.352C119.099 20.248 118.499 19.696 117.611 19.696C116.723 19.696 116.123 20.248 116.123 21.352V22.408C116.123 23.512 116.723 24.064 117.611 24.064Z" fill="#6C737F"/>
</svg>
