<svg width="28" height="28" viewBox="0 0 28 28" fill="none" xmlns="http://www.w3.org/2000/svg">
<path fill-rule="evenodd" clip-rule="evenodd" d="M14 17.9584C16.6464 17.9584 18.7917 15.8131 18.7917 13.1667V9.83341C18.7917 7.18705 16.6464 5.04175 14 5.04175C11.3537 5.04175 9.20837 7.18705 9.20837 9.83341V13.1667C9.20837 15.8131 11.3537 17.9584 14 17.9584ZM14 6.29175C12.044 6.29175 10.4584 7.87741 10.4584 9.83341V13.1667C10.4584 15.1228 12.044 16.7084 14 16.7084C15.7428 16.7084 17.1915 15.4497 17.4867 13.7917H15.6667C15.3215 13.7917 15.0417 13.5119 15.0417 13.1667C15.0417 12.8216 15.3215 12.5417 15.6667 12.5417H17.5417V10.4584H15.6667C15.3215 10.4584 15.0417 10.1786 15.0417 9.83341C15.0417 9.48824 15.3215 9.20841 15.6667 9.20841H17.4867C17.1915 7.55049 15.7428 6.29175 14 6.29175Z" fill="#161616"/>
<path d="M7.95837 13.1667C7.95837 12.8216 7.67855 12.5417 7.33337 12.5417C6.9882 12.5417 6.70837 12.8216 6.70837 13.1667C6.70837 16.9833 9.64054 20.115 13.375 20.432V21.7084H11.5C11.1549 21.7084 10.875 21.9882 10.875 22.3334C10.875 22.6786 11.1549 22.9584 11.5 22.9584H16.5C16.8452 22.9584 17.125 22.6786 17.125 22.3334C17.125 21.9882 16.8452 21.7084 16.5 21.7084H14.625V20.432C18.3595 20.115 21.2917 16.9833 21.2917 13.1667C21.2917 12.8216 21.0119 12.5417 20.6667 12.5417C20.3215 12.5417 20.0417 12.8216 20.0417 13.1667C20.0417 16.5035 17.3368 19.2084 14 19.2084C10.6633 19.2084 7.95837 16.5035 7.95837 13.1667Z" fill="#161616"/>
</svg>
