<svg width="33" height="32" viewBox="0 0 33 32" fill="none" xmlns="http://www.w3.org/2000/svg">
<path d="M32.1772 20.4111C31.8041 20.1856 31.1241 19.8055 30.1853 19.4898C28.8313 19.0259 26.9417 18.678 24.7031 19.0581C23.9509 19.187 23.1565 19.3996 22.3321 19.7153C22.2538 19.7475 22.1756 19.7733 22.0974 19.8055C21.6762 19.973 21.2609 20.1792 20.8397 20.4047C20.4786 20.598 20.1236 20.8106 19.7685 21.0425C18.9561 21.5644 18.1557 22.1572 17.3794 22.8014C16.4948 17.0737 16.9281 11.7583 17.1327 9.14892C17.1327 9.13604 17.1508 9.12959 17.1628 9.13604C19.0584 10.4117 18.5288 13.9747 18.1256 14.9991C18.1196 15.0184 18.1437 15.0313 18.1618 15.0184C20.5207 12.0353 19.3713 8.73657 18.8839 7.90544C18.8719 7.88611 18.8959 7.86679 18.914 7.87967C19.257 8.17605 19.5338 8.49175 19.7685 8.81389C20.4967 9.81254 20.7675 10.8885 20.8397 11.8421C20.8758 12.3446 20.8638 12.8085 20.8397 13.208C20.8337 13.3175 20.8276 13.4141 20.8156 13.5108C20.8156 13.5237 20.8276 13.5301 20.8397 13.5237C20.8457 13.5237 20.8517 13.5237 20.8517 13.5172C21.4896 12.1771 21.7965 10.154 20.8397 8.18893C20.5809 7.65417 20.2319 7.12585 19.7685 6.61686C19.6361 6.46867 19.4917 6.32693 19.3412 6.17875C19.3292 6.16586 19.3412 6.14009 19.3593 6.14653C19.5037 6.18519 19.6361 6.23028 19.7685 6.27538C20.1717 6.42357 20.5268 6.62975 20.8397 6.88102C21.5558 7.448 22.0432 8.22114 22.3321 9.03295C22.5728 9.70301 22.6811 10.3924 22.6811 11.0045C22.6811 11.0302 22.7112 11.0303 22.7172 11.0109C23.1625 9.2649 22.8917 7.9441 22.3321 6.98411C21.9349 6.29472 21.3873 5.79216 20.8397 5.43781C20.4666 5.19942 20.0935 5.03191 19.7685 4.92882C19.5759 4.86439 19.4074 4.82573 19.257 4.8064C19.2329 4.8064 19.2389 4.76775 19.263 4.76775C19.4375 4.74842 19.606 4.74197 19.7685 4.73553C20.1657 4.72909 20.5207 4.76775 20.8397 4.82573C21.4715 4.95459 21.965 5.18654 22.3321 5.45714C22.9339 5.88882 23.2348 6.39781 23.3371 6.60398C23.3431 6.62331 23.3732 6.61042 23.3732 6.59109C23.2889 5.66976 22.8917 4.94815 22.3381 4.43271C21.9108 4.03325 21.3873 3.75621 20.8457 3.58869C20.4906 3.48561 20.1296 3.42763 19.7745 3.42118C19.2931 3.41474 18.8297 3.49849 18.4386 3.67889C18.4205 3.68534 18.4085 3.66601 18.4145 3.64668C18.7635 3.11192 19.257 2.78978 19.7745 2.61582C20.1356 2.49985 20.5027 2.45474 20.8457 2.48051C21.1767 2.49984 21.4776 2.57715 21.7243 2.69957C21.7424 2.70601 21.7544 2.68669 21.7423 2.66736C21.4715 2.33878 21.1646 2.08105 20.8457 1.88777C20.5027 1.68159 20.1416 1.55918 19.7745 1.51408C18.8177 1.39811 17.8428 1.83623 17.1929 2.88642C17.1869 2.89931 17.1688 2.89931 17.1628 2.88642C17.0364 2.64803 16.9161 2.38387 16.8077 2.10682C16.549 1.46253 16.3384 0.740934 16.224 0.0193287C16.218 -0.00644291 16.1939 -0.00644291 16.1939 0.0193287C16.0796 0.740934 15.863 1.46898 15.6042 2.11327C15.4898 2.39032 15.3755 2.64804 15.2491 2.87998C15.2431 2.89287 15.2251 2.89287 15.219 2.87998C14.0877 1.04375 11.9634 1.08241 10.6696 2.66736C10.6576 2.68025 10.6696 2.70601 10.6876 2.69957C11.5482 2.26145 13.179 2.39031 13.9974 3.64668C14.0095 3.66601 13.9914 3.68534 13.9734 3.67889C12.7156 3.11192 10.7659 3.47916 9.72479 4.8064C9.35169 5.27674 9.09894 5.87593 9.03275 6.59109C9.03275 6.61042 9.05682 6.62331 9.06885 6.60398C9.14708 6.44291 9.35169 6.09498 9.72479 5.74062C10.3326 5.1672 11.3917 4.58735 13.1429 4.76131C13.167 4.76775 13.167 4.79996 13.1489 4.79996C12.2523 4.91594 10.4048 5.77284 9.72479 7.73149C9.4239 8.59484 9.34567 9.67724 9.68267 11.0045C9.68869 11.0238 9.71878 11.0238 9.71878 10.998C9.71878 10.9658 9.71877 10.9401 9.72479 10.9078C9.74284 9.12959 10.6937 6.74572 13.0466 6.14009C13.0647 6.13365 13.0767 6.15941 13.0647 6.1723C10.4349 8.64637 10.6937 11.7003 11.5542 13.5043C11.5662 13.5237 11.5903 13.5172 11.5903 13.4979C11.476 12.132 11.3857 9.70301 13.4919 7.86678C13.51 7.8539 13.5341 7.87323 13.522 7.89256C13.0346 8.73014 11.8852 12.0225 14.2442 15.0055C14.2562 15.0249 14.2863 15.012 14.2803 14.9862C13.8831 13.9682 13.3535 10.3988 15.2431 9.12315C15.2551 9.1167 15.2732 9.12315 15.2732 9.13604C15.4778 11.7454 15.9111 17.0608 15.0265 22.7886C13.504 21.5386 11.8972 20.4433 10.3085 19.799C10.1099 19.7217 9.91737 19.6509 9.73081 19.58C8.08795 19.0001 6.5835 18.8391 5.27162 18.9035C3.16539 19.0001 1.55262 19.6766 0.668006 20.147C0.487472 20.2436 0.337024 20.3338 0.222685 20.4047C0.174543 20.4369 0.210648 20.5078 0.258791 20.4884C0.3972 20.4433 0.529597 20.3982 0.668006 20.3596C2.28679 19.8699 3.82133 19.7411 5.27162 19.8764C6.8543 20.0245 8.3407 20.4884 9.73081 21.1585C11.6806 22.0992 13.4438 23.4393 15.0385 24.8567C12.7879 26.9571 10.8862 28.9995 9.73081 29.7147C9.67064 29.7469 9.61648 29.7856 9.56232 29.8178C9.2855 29.4119 8.80407 29.1799 8.28052 29.3023C7.82317 29.4119 7.45006 29.8049 7.34776 30.2881C7.25749 30.7198 7.3598 31.1901 7.58848 31.4349C8.20229 32.0921 8.91239 32.1372 9.73081 31.77C11.2894 31.0677 13.2272 28.8642 15.6042 26.5319C15.8028 26.3386 16.0014 26.1389 16.206 25.9456C16.4106 26.1389 16.6092 26.3322 16.8077 26.5254C17.8849 27.5821 18.8718 28.6129 19.7745 29.4892C20.1476 29.85 20.5027 30.185 20.8457 30.4814C21.3753 30.9453 21.8747 31.3254 22.3381 31.5896C23.2468 32.105 24.0351 32.1694 24.7091 31.5316C24.7452 31.4994 24.7813 31.4672 24.8174 31.4285C24.9739 31.261 25.1544 30.7133 25.0581 30.2817C25.004 30.0304 24.8776 29.8049 24.7031 29.6309C24.5466 29.4698 24.342 29.3474 24.1254 29.2959C23.6018 29.1735 23.1204 29.4054 22.8436 29.8113C22.6871 29.7276 22.5186 29.6116 22.3321 29.4763C21.9048 29.1606 21.4054 28.716 20.8397 28.1877C20.5027 27.872 20.1476 27.5241 19.7685 27.1568C19.0343 26.4417 18.2279 25.6556 17.3734 24.8503C18.1317 24.1738 18.932 23.5166 19.7685 22.911C20.1175 22.6597 20.4726 22.4149 20.8397 22.1829C21.3271 21.8737 21.8206 21.5902 22.3321 21.326C23.0963 20.933 23.8847 20.6044 24.7031 20.3531C26.4001 19.8313 28.2235 19.6573 30.1853 19.9923C30.8232 20.1019 31.4731 20.2629 32.1411 20.482C32.1893 20.5142 32.2254 20.4433 32.1772 20.4111Z" fill="#9DA4AE"/>
</svg>
