<svg width="20" height="20" viewBox="0 0 20 20" fill="none" xmlns="http://www.w3.org/2000/svg">
<path d="M9.79163 6.24999C9.79163 5.90481 9.5118 5.62499 9.16663 5.62499C8.82145 5.62499 8.54163 5.90481 8.54163 6.24999V8.54166H6.24996C5.90478 8.54166 5.62496 8.82148 5.62496 9.16666C5.62496 9.51183 5.90478 9.79166 6.24996 9.79166H8.54163V12.0833C8.54163 12.4285 8.82145 12.7083 9.16663 12.7083C9.5118 12.7083 9.79163 12.4285 9.79163 12.0833V9.79166H12.0833C12.4285 9.79166 12.7083 9.51183 12.7083 9.16666C12.7083 8.82148 12.4285 8.54166 12.0833 8.54166H9.79163V6.24999Z" fill="white"/>
<path fill-rule="evenodd" clip-rule="evenodd" d="M1.04163 9.16666C1.04163 4.67934 4.67931 1.04166 9.16663 1.04166C13.6539 1.04166 17.2916 4.67934 17.2916 9.16666C17.2916 11.1853 16.5554 13.0321 15.3369 14.453L18.7752 17.8914C19.0193 18.1355 19.0193 18.5312 18.7752 18.7753C18.5312 19.0193 18.1354 19.0193 17.8914 18.7753L14.453 15.3369C13.032 16.5555 11.1853 17.2917 9.16663 17.2917C4.67931 17.2917 1.04163 13.654 1.04163 9.16666ZM9.16663 2.29166C5.36967 2.29166 2.29163 5.3697 2.29163 9.16666C2.29163 12.9636 5.36967 16.0417 9.16663 16.0417C12.9636 16.0417 16.0416 12.9636 16.0416 9.16666C16.0416 5.3697 12.9636 2.29166 9.16663 2.29166Z" fill="white"/>
</svg>
