<svg width="20" height="20" viewBox="0 0 20 20" fill="none" xmlns="http://www.w3.org/2000/svg">
<path fill-rule="evenodd" clip-rule="evenodd" d="M9.99996 13.125C8.27407 13.125 6.87496 11.7259 6.87496 9.99999C6.87496 8.2741 8.27407 6.87499 9.99996 6.87499C11.7258 6.87499 13.125 8.2741 13.125 9.99999C13.125 11.7259 11.7258 13.125 9.99996 13.125ZM8.12496 9.99999C8.12496 11.0355 8.96443 11.875 9.99996 11.875C11.0355 11.875 11.875 11.0355 11.875 9.99999C11.875 8.96446 11.0355 8.12499 9.99996 8.12499C8.96443 8.12499 8.12496 8.96446 8.12496 9.99999Z" fill="white"/>
<path fill-rule="evenodd" clip-rule="evenodd" d="M9.99996 3.54166C7.85783 3.54166 6.02159 4.4845 4.60021 5.59414C3.17757 6.70479 2.12601 8.01644 1.5378 8.84126L1.49345 8.9031C1.28249 9.1965 1.04163 9.53149 1.04163 9.99999C1.04163 10.4685 1.28249 10.8035 1.49345 11.0969L1.5378 11.1587C2.12601 11.9835 3.17757 13.2952 4.60022 14.4058C6.02159 15.5155 7.85783 16.4583 9.99996 16.4583C12.1421 16.4583 13.9783 15.5155 15.3997 14.4058C16.8224 13.2952 17.8739 11.9835 18.4621 11.1587L18.5065 11.0969C18.7174 10.8035 18.9583 10.4685 18.9583 9.99999C18.9583 9.53148 18.7174 9.1965 18.5065 8.9031L18.4621 8.84126C17.8739 8.01644 16.8224 6.70479 15.3997 5.59414C13.9783 4.4845 12.1421 3.54166 9.99996 3.54166ZM2.55552 9.56703C3.10569 8.79556 4.07694 7.58847 5.36943 6.57944C6.66319 5.56942 8.23441 4.79166 9.99996 4.79166C11.7655 4.79166 13.3367 5.56942 14.6305 6.57944C15.923 7.58847 16.8942 8.79556 17.4444 9.56703C17.5805 9.75788 17.6453 9.85107 17.6839 9.92526C17.7084 9.97242 17.7084 9.98534 17.7083 9.998L17.7083 9.99999L17.7083 10.002C17.7084 10.0146 17.7084 10.0276 17.6839 10.0747C17.6453 10.1489 17.5805 10.2421 17.4444 10.4329C16.8942 11.2044 15.923 12.4115 14.6305 13.4205C13.3367 14.4306 11.7655 15.2083 9.99996 15.2083C8.23441 15.2083 6.66319 14.4306 5.36943 13.4205C4.07694 12.4115 3.10569 11.2044 2.55552 10.4329C2.41942 10.2421 2.35464 10.1489 2.31603 10.0747C2.29148 10.0276 2.29155 10.0146 2.29162 10.002L2.29163 9.99999L2.29162 9.998C2.29155 9.98534 2.29148 9.97242 2.31603 9.92526C2.35464 9.85107 2.41942 9.75788 2.55552 9.56703Z" fill="white"/>
</svg>
