<svg width="20" height="20" viewBox="0 0 20 20" fill="none" xmlns="http://www.w3.org/2000/svg">
<path d="M5.06079 2.28883C5.40433 2.25526 5.65561 1.94955 5.62204 1.60601C5.58847 1.26247 5.28276 1.01119 4.93922 1.04476C3.77185 1.15883 2.8484 1.42827 2.13827 2.13839C1.42814 2.84852 1.1587 3.77198 1.04463 4.93934C1.01106 5.28289 1.26235 5.58859 1.60589 5.62216C1.94943 5.65573 2.25514 5.40445 2.28871 5.06091C2.39214 4.00245 2.61554 3.4289 3.02216 3.02228C3.42878 2.61566 4.00232 2.39226 5.06079 2.28883Z" fill="#161616"/>
<path d="M15.0608 1.04476C14.7172 1.01119 14.4115 1.26247 14.378 1.60601C14.3444 1.94955 14.5957 2.25526 14.9392 2.28883C15.9977 2.39226 16.5712 2.61566 16.9779 3.02228C17.3845 3.4289 17.6079 4.00245 17.7113 5.06091C17.7449 5.40445 18.0506 5.65573 18.3941 5.62216C18.7377 5.58859 18.9889 5.28289 18.9554 4.93934C18.8413 3.77198 18.5719 2.84852 17.8617 2.13839C17.1516 1.42827 16.2282 1.15883 15.0608 1.04476Z" fill="#161616"/>
<path d="M8.33334 1.04179C7.98816 1.04179 7.70834 1.32162 7.70834 1.66679C7.70834 2.01197 7.98816 2.29179 8.33334 2.29179H11.6667C12.0119 2.29179 12.2917 2.01197 12.2917 1.66679C12.2917 1.32162 12.0119 1.04179 11.6667 1.04179L8.33334 1.04179Z" fill="#161616"/>
<path d="M2.29167 8.33346C2.29167 7.98828 2.01185 7.70846 1.66667 7.70846C1.32149 7.70846 1.04167 7.98828 1.04167 8.33346L1.04167 11.6668C1.04167 12.012 1.32149 12.2918 1.66667 12.2918C2.01185 12.2918 2.29167 12.012 2.29167 11.6668L2.29167 8.33346Z" fill="#161616"/>
<path d="M2.28871 14.9393C2.25514 14.5958 1.94943 14.3445 1.60589 14.3781C1.26235 14.4117 1.01106 14.7174 1.04463 15.0609C1.1587 16.2283 1.42814 17.1517 2.13827 17.8619C2.8484 18.572 3.77185 18.8414 4.93922 18.9555C5.28276 18.9891 5.58847 18.7378 5.62204 18.3942C5.65561 18.0507 5.40433 17.745 5.06079 17.7114C4.00233 17.608 3.42878 17.3846 3.02216 16.978C2.61554 16.5714 2.39214 15.9978 2.28871 14.9393Z" fill="#161616"/>
<path d="M10.7501 11.7501C10.4049 11.7501 10.1251 12.0299 10.1251 12.3751C10.1251 12.7203 10.4049 13.0001 10.7501 13.0001H14.0001C14.3452 13.0001 14.6251 12.7203 14.6251 12.3751C14.6251 12.0299 14.3452 11.7501 14.0001 11.7501H10.7501Z" fill="#161616"/>
<path fill-rule="evenodd" clip-rule="evenodd" d="M12.3751 6.87508C9.3375 6.87508 6.87506 9.33751 6.87506 12.3751C6.87506 15.4126 9.3375 17.8751 12.3751 17.8751C13.6687 17.8751 14.858 17.4285 15.7972 16.6811L17.8915 18.7754C18.1355 19.0194 18.5313 19.0194 18.7753 18.7754C19.0194 18.5313 19.0194 18.1355 18.7753 17.8915L16.6811 15.7972C17.4285 14.858 17.8751 13.6687 17.8751 12.3751C17.8751 9.33751 15.4126 6.87508 12.3751 6.87508ZM8.12506 12.3751C8.12506 10.0279 10.0279 8.12508 12.3751 8.12508C14.7223 8.12508 16.6251 10.0279 16.6251 12.3751C16.6251 14.7223 14.7223 16.6251 12.3751 16.6251C10.0279 16.6251 8.12506 14.7223 8.12506 12.3751Z" fill="#161616"/>
</svg>
