<svg width="18" height="18" viewBox="0 0 18 18" fill="none" xmlns="http://www.w3.org/2000/svg">
<path d="M4.06079 1.28883C4.40433 1.25526 4.65561 0.949552 4.62204 0.60601C4.58847 0.262469 4.28276 0.0111865 3.93922 0.0447557C2.77185 0.158825 1.8484 0.428265 1.13827 1.13839C0.428144 1.84852 0.158704 2.77198 0.0446337 3.93934C0.0110643 4.28289 0.262348 4.58859 0.605889 4.62216C0.949431 4.65573 1.25514 4.40445 1.28871 4.06091C1.39214 3.00245 1.61554 2.4289 2.02216 2.02228C2.42878 1.61566 3.00232 1.39226 4.06079 1.28883Z" fill="#161616"/>
<path d="M14.0608 0.0447557C13.7172 0.0111865 13.4115 0.262469 13.378 0.60601C13.3444 0.949552 13.5957 1.25526 13.9392 1.28883C14.9977 1.39226 15.5712 1.61566 15.9779 2.02228C16.3845 2.4289 16.6079 3.00245 16.7113 4.06091C16.7449 4.40445 17.0506 4.65573 17.3941 4.62216C17.7377 4.58859 17.9889 4.28289 17.9554 3.93934C17.8413 2.77198 17.5719 1.84852 16.8617 1.13839C16.1516 0.428265 15.2282 0.158825 14.0608 0.0447557Z" fill="#161616"/>
<path d="M7.33334 0.041793C6.98816 0.041793 6.70834 0.321615 6.70834 0.666793C6.70834 1.01197 6.98816 1.29179 7.33334 1.29179H10.6667C11.0119 1.29179 11.2917 1.01197 11.2917 0.666793C11.2917 0.321615 11.0119 0.0417931 10.6667 0.0417931L7.33334 0.041793Z" fill="#161616"/>
<path d="M1.29167 7.33346C1.29167 6.98828 1.01185 6.70846 0.666671 6.70846C0.321493 6.70846 0.0416709 6.98828 0.0416709 7.33346L0.0416725 10.6668C0.0416725 11.012 0.321493 11.2918 0.666671 11.2918C1.01185 11.2918 1.29167 11.012 1.29167 10.6668L1.29167 7.33346Z" fill="#161616"/>
<path d="M1.28871 13.9393C1.25514 13.5958 0.949431 13.3445 0.605889 13.3781C0.262346 13.4117 0.0110643 13.7174 0.0446337 14.0609C0.158704 15.2283 0.428144 16.1517 1.13827 16.8619C1.8484 17.572 2.77185 17.8414 3.93922 17.9555C4.28276 17.9891 4.58847 17.7378 4.62204 17.3942C4.65561 17.0507 4.40433 16.745 4.06079 16.7114C3.00233 16.608 2.42878 16.3846 2.02216 15.978C1.61554 15.5714 1.39214 14.9978 1.28871 13.9393Z" fill="#161616"/>
<path d="M11.3751 9.12508C11.7202 9.12508 12.0001 9.4049 12.0001 9.75008V10.7501H13.0001C13.3452 10.7501 13.6251 11.0299 13.6251 11.3751C13.6251 11.7203 13.3452 12.0001 13.0001 12.0001H12.0001V13.0001C12.0001 13.3453 11.7202 13.6251 11.3751 13.6251C11.0299 13.6251 10.7501 13.3453 10.7501 13.0001V12.0001H9.75006C9.40488 12.0001 9.12506 11.7203 9.12506 11.3751C9.12506 11.0299 9.40488 10.7501 9.75006 10.7501H10.7501V9.75008C10.7501 9.4049 11.0299 9.12508 11.3751 9.12508Z" fill="#161616"/>
<path fill-rule="evenodd" clip-rule="evenodd" d="M5.87506 11.3751C5.87506 8.33751 8.3375 5.87508 11.3751 5.87508C14.4126 5.87508 16.8751 8.33751 16.8751 11.3751C16.8751 12.507 16.5331 13.559 15.9469 14.4335C15.8632 14.5585 15.7745 14.6798 15.6811 14.7972L17.7753 16.8915C18.0194 17.1355 18.0194 17.5313 17.7753 17.7754C17.5313 18.0194 17.1355 18.0194 16.8915 17.7754L14.7972 15.6811C13.858 16.4285 12.6687 16.8751 11.3751 16.8751C8.3375 16.8751 5.87506 14.4126 5.87506 11.3751ZM11.3751 7.12508C9.02785 7.12508 7.12506 9.02787 7.12506 11.3751C7.12506 13.7223 9.02785 15.6251 11.3751 15.6251C13.7223 15.6251 15.6251 13.7223 15.6251 11.3751C15.6251 9.02787 13.7223 7.12508 11.3751 7.12508Z" fill="#161616"/>
</svg>
